# xmcd
#
# Track frame offsets:
#	182
#	11995
#	24722
#	37105
#	49997
#	61497
#	72965
#	84675
#	97885
#	108192
#	120535
#	131775
#	146487
#	161855
#
# Disc length: 2331 seconds
#
# Revision: 1
# Processed by: cddbd v1.5.2PL0 Copyright (c) Steve Scherf et al.
# Submitted via: audiograbber 1.83.01
#
DISCID=cb09190e
DTITLE=Various Artist - Trumpet Masters, Vol. 3 - Red Hot Kisses
DYEAR=1951
DGENRE=Blues
TTITLE0=Sonny Boy Williamson - Red Hot Kisses
TTITLE1=Beverly White and Her Trio - Cling To Me, Baby
TTITLE2=Clayton Love and His Shufflers - Susie
TTITLE3=Tiny Kennedy - Have You Heard About The Farmers's Daughter ?
TTITLE4=Tiny Kennedy - Strange Kind Of Feeling
TTITLE5=Tiny Kennedy - Earls In The Morning, Baby
TTITLE6=Tiny Kennedy - Blues Disease
TTITLE7=Wally Mercer - Sad And Blue
TTITLE8=Wally Mercer - If You Don't Mean Business
TTITLE9=Wally Mercer - Too Old To Get Married
TTITLE10=Sherman "Blues" Johnson and His Clouds Of Joy - Hot Fish
TTITLE11=Sherman "Blues" Johnson and His Clouds Of Joy - Sugar Mama
TTITLE12=Sherman "Blues" Johnson and His Clouds Of Joy - Lost In Korea
TTITLE13=Sherman "Blues" Johnson and His Clouds Of Joy - Pretty Baby Blues
EXTD=
EXTT0=
EXTT1=
EXTT2=
EXTT3=
EXTT4=
EXTT5=
EXTT6=
EXTT7=
EXTT8=
EXTT9=
EXTT10=
EXTT11=
EXTT12=
EXTT13=
PLAYORDER=
